# xmcd
#
# Track frame offsets: 
#        150
#        32686
#        62081
#        91620
#        126584
#        157722
#        196355
#        234613
#        263022
#        291247
#        319913
#
# Disc length: 4781 seconds
#
# Revision: 0
# Processed by: cddbd v1.5.2PL0 Copyright (c) Steve Scherf et al.
# Submitted via: ExactAudioCopy v1.3
#
DISCID=9412ab0b
DTITLE=Various Artist - Akella Presents - vol. 155 - Long Time Blues 
DTITLE=CD1
DYEAR=2018
DGENRE=Blues
TTITLE0=Van Galen Band - My Guitar
TTITLE1=Robin Barrett - Waiting To Be Free
TTITLE2=The Scandaleros - City Girls
TTITLE3=Zoe Schwarz - Don't Worry Blues
TTITLE4=Ty Curtis - What Kind Of Fool
TTITLE5=Jon Spear Band - Tin Pan Alley
TTITLE6=Subluna - Free Ride
TTITLE7=Jeff Fetterman - Broken Hearted
TTITLE8=The Kilborn Alley Blues Band - Keep Me Hangin'
TTITLE9=Dave Hole - These Blues Are Here To Stay
TTITLE10=Righteous Continental - Voodoo Child
EXTD=
EXTT0=
EXTT1=
EXTT2=
EXTT3=
EXTT4=
EXTT5=
EXTT6=
EXTT7=
EXTT8=
EXTT9=
EXTT10=
PLAYORDER=
